<svg id="Layer_1" data-name="Layer 1" xmlns="http://www.w3.org/2000/svg" viewBox="0 0 481.53 137.89"><path d="M240.3,248.61c-1.35.81-2.3,1.47-3.32,2-8.12,4.19-12.72,2.41-13.94-6.4-1-7.52-.93-15.24-.9-22.87,0-3.67-1.08-5.11-4.82-4.91-4.64.25-9.31.21-13.95.09-3.22-.08-4.43,1.17-4.26,4.43.37,7.47.42,14.95.73,22.41.22,5.41-1,6.5-8.16,7.23-4.46.45-6.12-1.91-6.22-5.79-.21-7.47.22-15-.5-22.41-.45-4.58-2.67-9-3.8-13.53-.31-1.25.26-3.91.74-4,4.37-.72,4.07-3.89,3.79-6.85-.65-6.7-1.37-13.41-2.38-20.07-.35-2.36-.39-4.24,2.35-4.26a42.06,42.06,0,0,1,9.84.93c3.4.79,5.06,3,4.63,7-.64,6.1-.43,12.28-.84,18.41-.22,3.34,1,4.45,4.27,4.33,4.81-.18,9.64-.2,14.45,0,3,.12,4.15-.94,4.1-4-.11-6.15,0-12.3.14-18.44s6.41-10.76,12.11-8.44c1.18.49,1.92,3.5,1.87,5.32-.29,11.79-1.23,23.56-1.22,35.34a217.06,217.06,0,0,0,1.91,25.31C237.27,242.42,239,245.26,240.3,248.61Z" transform="translate(-10.93 -172.84)"/><path d="M109.87,270.91c-.38,8.48-4,17.13-8.46,25.49-1.71,3.22-3.61,6.34-5.37,9.52-1.35,2.44-3,2.83-5.27,1.14-10.8-8.18-19.64-18-23.29-31.31-2.32-8.43.67-16.18,4.87-23.68,2.49-4.44,5.55-6.12,10.35-5.49,1.29.17,2.91.34,3.92-.26,5.74-3.39,8.12,0,10.73,4.47a27.44,27.44,0,0,0,6.74,7.16C108.61,261.53,110.07,264,109.87,270.91Z" transform="translate(-10.93 -172.84)"/><path d="M325.06,247.6c-6.32.89-12,2.47-17.55,2.3-12.94-.41-15.34-13.09-11.08-22.53,4-8.78,12.63-11.05,21-13.44a8.23,8.23,0,0,0,4-2c-1.39-.77-2.72-2.06-4.19-2.24a112.82,112.82,0,0,0-12.86-.8c-3.31,0-4-1.17-3.07-4.27,1.5-4.9,4.19-7.81,9.68-7.11,4.08.51,8.24.69,12.23,1.61,10.07,2.31,13.65,9.53,14.08,18.52.35,7.29.23,14.6.38,21.91a12.42,12.42,0,0,0,.48,3.91c2.05,5.75.78,8.27-5.81,10.33-5.25,1.64-6-2.43-7.12-6C325.13,247.57,324.86,247.32,325.06,247.6Zm-.87-20.39c-.5-.49-2.2-3.26-3.29-3-3.45.71-7.16,1.95-9.79,4.15-1.57,1.31-2.47,5.46-1.53,7.15s4.6,3.16,6.91,3C321.64,238,323.93,234.59,324.19,227.21Z" transform="translate(-10.93 -172.84)"/><path d="M167.64,251.07c-6.19,1.71-11.65,3.61-17.26,4.68-12.66,2.42-25.56,3.82-37.65-1.81-5.23-2.44-9.51-7-14-10.89-.56-.49-.16-3.05.62-3.94a91.67,91.67,0,0,1,9.65-10c1.52-1.31,4-1.84,6.06-2.1,4.65-.59,9.43-.39,14-1.23,7.73-1.42,14.46.63,20.65,4.94C157.09,235.88,163.87,241.58,167.64,251.07Z" transform="translate(-10.93 -172.84)"/><path d="M457.67,204.72a62.4,62.4,0,0,0,5.75-3c8.65-5.64,18.18,0,19.73,11,1.46,10.46,1.3,21.17,1.41,31.78.07,6.47-5.16,9.74-11.32,7.28-1.1-.44-2-2.82-2-4.33-.16-8.29.11-16.6,0-24.89-.1-5.94-2.24-8.64-6.1-8.54-4.62.13-8,3.62-8.14,9-.17,6.31.12,12.62,0,18.93-.1,6-6.24,10.69-11.83,9-1-.3-2.05-2.2-2.06-3.37-.11-14.11-.12-28.22.07-42.34.06-4.15,7.94-8.58,11.39-6.36C456,199.82,456.45,202.31,457.67,204.72Z" transform="translate(-10.93 -172.84)"/><path d="M413.63,236.59c5.49,2.57,5.49,2.57,19.61,0,2.6,7-.45,12.29-7.52,13.18-7.28.91-14.57,1.91-21.22-2.42-8.63-5.62-11.68-14-10.35-23.69s5.43-18.24,15.63-21.79a37.17,37.17,0,0,1,11.05-2.16c12.38-.3,18.1,9.91,11.87,20.78C429.55,226,425.76,229.18,413.63,236.59ZM408,223.93c.77.35,2.91,1.84,3.35,1.45a98.88,98.88,0,0,0,10.09-10.48c.57-.7-.28-3.32-1.24-4.29-.77-.77-2.87-.83-4.11-.4C412,211.63,408,217.93,408,223.93Z" transform="translate(-10.93 -172.84)"/><path d="M267.18,236.71c7.57,3.28,13.77,1.35,19.94-.42,3.21,6.1.21,13-6.29,13.2-6.68.26-14,.9-20-1.32-9.47-3.49-14.06-14-12.51-24.76,2-13.76,11.52-24.3,26.93-23.9,12.16.32,18.32,10.32,11.63,20.58-3.3,5.08-8.71,8.83-13.35,13C272,234.43,269.94,235.16,267.18,236.71Zm-4-10.49A17.8,17.8,0,0,0,275.76,215a4.35,4.35,0,0,0-.88-4,5.48,5.48,0,0,0-4.47-.77C264.84,212.17,261.49,219.45,263.21,226.22Z" transform="translate(-10.93 -172.84)"/><path d="M366.35,229.78c1.2-3.13,2.71-6.17,3.53-9.4,1.93-7.51,3.55-15.1,5.25-22.66,1-4.31,10.31-7.64,13.38-4.44,1,1.08,1.08,3.79.63,5.52-1.66,6.56-3.64,13-5.65,19.51-2.64,8.5-5.51,16.94-8.13,25.45-1.94,6.27-3.14,5.86-13.13,6.55-4.53.31-5.35-2.73-6.36-6.55-2.2-8.28-5.35-16.3-7.92-24.49-1.54-4.88-2.91-9.83-4-14.83-.8-3.73,2.08-6.31,6.94-6.95,3.82-.51,4.94,1.21,5.79,4.86,2.15,9.23,5.06,18.28,7.66,27.4Z" transform="translate(-10.93 -172.84)"/><path d="M18.74,294.44c1.19-17.42,8.69-30.18,20.15-40.7a94.67,94.67,0,0,1,14-10.14c1.26-.79,3.89-.39,5.4.4,5.61,2.94,6.24,6.6,4.48,13.32-5.29,20.22-18.63,31.16-37.47,37.11-1.1.35-2.17,1.32-3.19,1.24A11.34,11.34,0,0,1,18.74,294.44Z" transform="translate(-10.93 -172.84)"/><path d="M114,207.82c4.37-2.34,8.71-4.75,13.12-7,8.94-4.58,18.37-7.72,28.47-7.76,4.4,0,8.88,1,13.2,2.09,3.87,1,2.47,3.56.62,5.13-5.43,4.59-10.91,9.19-16.74,13.24-9.64,6.7-20.63,8.83-32.17,7.71-2.49-.24-5.9-1.31-7-3.13-1.89-3.1-3.08-7.18.65-10.41Z" transform="translate(-10.93 -172.84)"/><path d="M76.52,240.48c-6.88-.28-10.85-2.55-12.61-7.81-1.84-5.46,1.09-9.18,5-12.35,6.12-4.91,12.5-9.31,20.64-10,4.79-.4,9.63-.08,12.29,4.53,2.51,4.35,1.13,8.67-2,12.39C93.74,234.6,86.08,239.28,76.52,240.48Z" transform="translate(-10.93 -172.84)"/><path d="M114.15,207.68c-1.14.12-2.57-.18-3.37.4-4.7,3.41-7.82-1.84-11.82-2.13a6.3,6.3,0,0,1-.22-3.81c5.82-12.53,15.08-21.07,28.84-24.24,4.52-1,5.94.17,5.29,5.06-1.25,9.47-7.25,15.65-14.61,20.89a44,44,0,0,0-4.25,4Z" transform="translate(-10.93 -172.84)"/><path d="M19.94,252.34a59.66,59.66,0,0,1-6.17-.65c-3-.55-3.84-2.67-1.48-4.5,8.57-6.65,15.61-15.69,27-18.15A125.27,125.27,0,0,1,53,226.92c.61-.06,2.26,2.24,2,2.91C50.11,242.78,35.81,252.2,19.94,252.34Z" transform="translate(-10.93 -172.84)"/><path d="M183,282.77c-.72-5.53-1.53-11.06-2.06-16.61a3.44,3.44,0,0,1,1.64-2.8c7.55-2.69,19.35,1.55,23.49,8.24,5.25,8.51,1.12,20.25-8.82,25-1,.5-2.14.92-3.22,1.34-9,3.57-11.72,1.82-11.74-7.59v-7.49Zm7.05-13.1v22.77c8.45-2.13,11.67-6.61,11-14.53C200.61,272.9,197.31,270.32,190.05,269.67Z" transform="translate(-10.93 -172.84)"/><path d="M382.8,275.32c-1.71,5.44-3.39,10.89-5.17,16.31-.61,1.87-1.14,4-2.38,5.37a6.65,6.65,0,0,1-4.63,1.79c-1,0-2.48-1.5-2.88-2.63-2-5.62-3.82-11.29-5.31-17.05-.29-1.15,1.17-2.75,1.82-4.14,1.31.88,3.33,1.47,3.82,2.68a101.47,101.47,0,0,1,3.11,10.68l1.36.2a80.44,80.44,0,0,0,2.28-8.65c.64-4.19,1.15-7.83,6.88-7.83,1.52,0,3.08-2.73,4.55-4.27,1.16-1.22,2.21-2.55,3.31-3.82.8,1.34,1.58,2.68,2.39,4,.49.8.83,2,1.54,2.31,3.14,1.45,2.31,2.83.46,4.84a7.24,7.24,0,0,0-2.06,4.55c.22,5.7,1.1,11.39,1.26,17.09,0,1.31-1.8,2.66-2.78,4-1.25-1-3.48-1.88-3.57-3-.5-5.77-.39-11.59-.64-17.39a34.32,34.32,0,0,0-1-5.14Z" transform="translate(-10.93 -172.84)"/><path d="M337.34,283.55c-.72-5.51-1.59-11-2-16.53-.09-1.15,1.4-3.52,2-3.47,6,.4,12.3.33,18,2.12,6.14,1.94,7.5,7.91,3.24,12.61a24.38,24.38,0,0,1-10.11,6.51c-4.31,1.43-6.8,3-5.73,7.91.25,1.12.55,2.56.06,3.42-.7,1.23-2.09,2.8-3.23,2.82s-2.91-1.74-3-2.85c-.36-4.12-.14-8.29-.14-12.44Zm4.18-8.4c1.45,1.51,2.72,4,4.37,4.31,3.33.58,8.66-4.06,7.47-6s-4.2-3.73-6.68-4.27C343.25,268.43,342.24,271.07,341.52,275.15Z" transform="translate(-10.93 -172.84)"/><path d="M273.55,296.83c-6.9,2.44-9.68,1.66-11.82-3.07-2.55-5.61-.32-13.53,4.56-16.23,6.15-3.39,9.33-3.29,12.38.45.5.63,1.22,1.41,1.2,2.1-.23,7.73.13,15.58-1.13,23.15-.92,5.55-9,8.82-14.59,7-.88-.29-2.07-2.08-1.85-2.76a4.15,4.15,0,0,1,2.8-2.34C271.1,304.32,273.5,302.23,273.55,296.83Zm-.11-16c-5.61,2.06-7.7,4.94-6.15,8.41.45,1,2.84,2.18,3.7,1.8C275.83,288.92,273.73,284.92,273.44,280.84Z" transform="translate(-10.93 -172.84)"/><path d="M436.45,282.58c4,2.57,4.9,13.5,1.83,15.68a3.61,3.61,0,0,1-1.87.5c-5,.11-9.94.15-14.9.27-2.53.06-4.19-.72-4.25-3.59-.19-9.95-.55-19.9-.45-29.84,0-1,2.79-2.63,4.23-2.58,1.25.06,3.42,2,3.47,3.25.29,6.29-.21,12.62.07,18.92.1,2.43,1.19,6.6,2.44,6.84,3.39.66,6.27-1.33,7.24-5.24C434.59,285.42,435.58,284.21,436.45,282.58Z" transform="translate(-10.93 -172.84)"/><path d="M466.23,297.32c-2.82,1.77-6.42,3-9.78-1.07-2.5-3-3.22-10.2-.53-13.57a22.74,22.74,0,0,1,7.49-6.05c2.83-1.37,4.22-2.8,3.87-6-.17-1.59-.24-3.56.55-4.78s2.74-1.86,4.18-2.75c.65,1.32,1.83,2.64,1.86,4,.23,9.45.27,18.91.22,28.36,0,1.13-.92,3.22-1.37,3.21C470.8,298.61,468.9,297.94,466.23,297.32Zm2.84-11.56L464.78,282c-1.5,2.13-3.33,4.12-4.29,6.47-.28.68,2,2.38,3.07,3.62Z" transform="translate(-10.93 -172.84)"/><path d="M59.29,206.55c1.66,0,3.5-.47,4.93.11,2,.81,4.37,2.07,5.17,3.79.5,1.08-1.37,3.53-2.55,5.08s-3.12,2.55-4.25,4.13c-2.38,3.34-4.8,5.29-9,2.73-1-.6-2.87,0-4.26.4-3.27.86-7.61,2.26-8.58-1.69-.71-2.88,1-7.95,3.37-9.62,4.24-3,9.76-4.2,14.75-6.15Z" transform="translate(-10.93 -172.84)"/><path d="M73.82,201.83a5.45,5.45,0,0,1,0-1c.66-3.73,14.32-13.56,18-13,5,.75,7.44,4.55,6,9.37a13.35,13.35,0,0,1-11.83,9.67,15.88,15.88,0,0,0-3.89.7C77.43,209.25,73.81,206.81,73.82,201.83Z" transform="translate(-10.93 -172.84)"/><path d="M284.74,287.59c0-3-.33-6,.09-9s1.91-5,5.5-2.88a5.25,5.25,0,0,0,3.78.38c4.44-1.37,7.64.16,8.27,4.87a82.68,82.68,0,0,1,.65,14.41c0,1.41-2.12,2.75-3.27,4.11-.83-1.35-2.2-2.63-2.38-4.06-.37-2.95.19-6-.22-8.95-.2-1.46-1.69-2.74-2.6-4.11-1.25,1.31-3.25,2.46-3.59,4-.61,2.69.16,5.68-.36,8.41-.3,1.51-2.06,2.74-3.16,4.1-.89-1.44-2.26-2.79-2.56-4.34-.45-2.24-.12-4.63-.12-7Z" transform="translate(-10.93 -172.84)"/><path d="M221.56,293.56l6.79-1,1.2,1c-1.23,1.66-2.14,4.24-3.76,4.81-4.42,1.57-8.88,1-12.32-2.72-3.59-3.88-3.77-9.6-.6-14.78,2.28-3.72,7.79-6.45,11.4-5.65,5,1.12,6.71,5.84,3.61,10.45a23.81,23.81,0,0,1-3.33,3.64c-1.11,1.08-2.33,2-3.5,3.06Zm-4.46-7.74,2.16,1.49,4-5.82L221.13,280Z" transform="translate(-10.93 -172.84)"/><path d="M445,286.57c-1.25-4.07-2.41-8.17-3.77-12.2-.78-2.3,4-10.21,6.5-10.51.47-.05,1.3-.05,1.39.17,1.31,3.16,4.47,7.41,3.42,9.38-4,7.43-1.52,14.87-1.78,22.28,0,.65.49,1.49.23,1.92-.73,1.19-1.57,2.82-2.68,3.1-.86.23-2.94-1.12-3.16-2.07-.85-3.84-1.19-7.78-1.71-11.69Z" transform="translate(-10.93 -172.84)"/><path d="M317.33,293.11c-3.18-2.59-5.16-4.23-7.18-5.83-4.71-3.74-4.72-6.75.34-10.08a18.34,18.34,0,0,1,6.8-2.6c1-.17,2.23,1.39,3.36,2.16a20.07,20.07,0,0,1-2.35,2.73,46.94,46.94,0,0,1-4.16,2.77l3.35,4.08,6,7.3c-2.8,2-5.55,4.11-8.42,6a4,4,0,0,1-2.83.74A41.16,41.16,0,0,1,307,298a36.46,36.46,0,0,1,4-2.64C312.55,294.63,314.27,294.18,317.33,293.11Z" transform="translate(-10.93 -172.84)"/><path d="M241.17,273.21l4.39,3.51a31.55,31.55,0,0,1-2.78,2.88,42.64,42.64,0,0,1-3.81,2.53c.94,1.28,1.68,2.83,2.88,3.76,2.83,2.2,7.6,4,5.92,8-1.18,2.78-5.58,4.36-8.77,6.05a7.18,7.18,0,0,1-4.79.27c-.94-.24-1.55-1.76-2.31-2.71a15.12,15.12,0,0,1,2.49-1.93c.7-.34,1.72,0,2.42-.39a43.69,43.69,0,0,0,3.94-2.45c-.92-1.07-1.82-2.16-2.78-3.19-.33-.36-.85-.53-1.21-.87-2.3-2.17-6.72-3.92-4.45-7.72C234.15,277.86,237.92,275.93,241.17,273.21Z" transform="translate(-10.93 -172.84)"/><path d="M250.8,288.16c0-2.49-.46-5.11.17-7.43.37-1.37,2.49-2.26,3.81-3.37.94,1.25,2.58,2.43,2.69,3.75a95,95,0,0,1,.24,14.41c-.1,1.54-1.94,3-3,4.44-1.21-1.27-3.15-2.38-3.49-3.86-.58-2.52-.16-5.28-.16-7.94Z" transform="translate(-10.93 -172.84)"/><path d="M492.46,190.24l-3.16-2.71c-.75.95-1.48,1.89-2.49,3.19l-2.27-3.12L481,191.33c-.23-4.36-.47-7.55-.49-10.75A2.18,2.18,0,0,1,482,179a3.44,3.44,0,0,1,2.55,1,18.61,18.61,0,0,1,1.77,3.83c.56-.28,1-.35,1.08-.56.91-1.46,1.77-2.95,2.64-4.43a34.28,34.28,0,0,1,2.11,5.08C492.49,185.47,492.32,187.16,492.46,190.24Z" transform="translate(-10.93 -172.84)"/><path d="M478.56,178.55c-.88,2.71-1.6,4.46-2,6.28s-.46,3.62-.68,5.43l-1.41.09c-.81-3.58-1.61-7.17-2.57-11.46Z" transform="translate(-10.93 -172.84)"/><path d="M254,275.67c-1.65-2.3-3.47-3.74-3.3-4.88s2.11-2.82,3.49-3.07c1-.17,3.36,1.87,3.22,2.53C257.11,271.86,255.68,273.24,254,275.67Z" transform="translate(-10.93 -172.84)"/><path d="M486.43,295.83c-2,.91-3.45,2.18-4.62,1.95s-3-1.91-3-3,1.66-2.64,2.92-3.07C482.33,291.5,483.67,293.34,486.43,295.83Z" transform="translate(-10.93 -172.84)"/><path d="M399.83,290.36c1.2,2.26,2.51,3.62,2.4,4.85a3.84,3.84,0,0,1-2.93,2.49c-1-.08-2.65-1.9-2.59-2.87C396.78,293.59,398.28,292.44,399.83,290.36Z" transform="translate(-10.93 -172.84)"/></svg>
